<?xml version="1.0" encoding="UTF-8"?><!DOCTYPE svg PUBLIC "-//W3C//DTD SVG 1.1//EN" "http://www.w3.org/Graphics/SVG/1.1/DTD/svg11.dtd"><svg xmlns="http://www.w3.org/2000/svg"><symbol id="icon-facebook-light" viewBox="0 0 26 48"><title>icon-facebook</title><path d="M24.572 14a1 1 0 0 1 .995 1.096l-.77 8a1 1 0 0 1-.995.904h-6.11v23a1 1 0 0 1-1 1h-9.23a1 1 0 0 1-1-1V24H1.923a1 1 0 0 1-1-1v-8a1 1 0 0 1 1-1h4.539v-3.29C6.462 4.59 9.373.07 16.088.07l7.992.026a1 1 0 0 1 .997 1V8.98a1 1 0 0 1-1 1H18.56c-.557 0-.869.276-.869 1.21V14h6.88zm-7.88 2a1 1 0 0 1-1-1v-3.81c0-2.096 1.257-3.21 2.869-3.21h4.516V2.093l-6.992-.023c-5.376 0-7.623 3.488-7.623 8.64V15a1 1 0 0 1-1 1H2.923v6h4.539a1 1 0 0 1 1 1v23h7.23V23a1 1 0 0 1 1-1h6.201l.578-6h-6.779z" fill-rule="nonzero" fill="#000"/></symbol><symbol id="icon-facebook" viewBox="0 0 23 23"><title>icon-facebook</title><path d="M11.5 0C5.159 0 0 5.159 0 11.5S5.159 23 11.5 23 23 17.841 23 11.5 17.841 0 11.5 0zm3.445 11.02h-2.008v6.71h-2.874v-6.71H8.146V9.105h1.916V7.99c0-1.054.338-2.702 2.54-2.702l2.252.007v2.21h-1.35c-.233 0-.566.118-.566.62v.98h2.241l-.234 1.917z" fill-rule="nonzero" fill="#F0F1F2"/></symbol><symbol id="icon-habitat" viewBox="0 0 48 40"><title>icon-habitat</title><path d="M20 16.477l-14 5.6V38h2v-9a1 1 0 0 1 1-1h8a1 1 0 0 1 1 1v9h2V16.477zm2-1.454V38h2v-7a1 1 0 0 1 1-1h14a1 1 0 0 1 1 1v7h2V17.074L22 4.66v10.363zm-2-.7V3.418L17.473 1.85a1 1 0 0 1 1.054-1.7L36 10.995V5a1 1 0 0 1 1-1h4a1 1 0 0 1 1 1v9.72l5.527 3.43a1 1 0 0 1-1.054 1.7L44 18.315V38h3a1 1 0 0 1 0 2H1a1 1 0 0 1 0-2h3V22.877l-2.629 1.051a1 1 0 0 1-.742-1.856L20 14.323zM32 32h-6v6h6v-6zm2 0v6h4v-6h-4zm4-19.763l2 1.241V6h-2v6.237zM28 21a4 4 0 1 1 0-8 4 4 0 0 1 0 8zm0-2a2 2 0 1 0 0-4 2 2 0 0 0 0 4zM10 30v8h6v-8h-6zm-1-4a1 1 0 0 1 0-2h8a1 1 0 0 1 0 2H9z" fill-rule="nonzero" fill="#000"/></symbol><symbol id="icon-mail" viewBox="0 0 48 32"><title>icon-mail</title><path d="M48 28c0 2.208-1.792 4-4 4H4c-2.208 0-4-1.792-4-4V4a4 4 0 0 1 4-4h40a4 4 0 0 1 4 4v24zm-2 0V4a2 2 0 0 0-2-2H4a2 2 0 0 0-2 2v24c0 1.104.896 2 2 2h40c1.104 0 2-.896 2-2zM7.543 8.16L24 18.81 40.457 8.16a1 1 0 0 1 1.086 1.68l-17 11a1 1 0 0 1-1.086 0l-17-11a1 1 0 0 1 1.086-1.68zm-1.04 14.972l7-4c1.159-.662 2.15 1.075.993 1.736l-7 4c-1.158.662-2.15-1.075-.992-1.736zm34 1.736l-7-4c-1.157-.661-.165-2.398.993-1.736l7 4c1.158.661.166 2.398-.992 1.736z" fill-rule="nonzero" fill="#000"/></symbol><symbol id="icon-phone" viewBox="0 0 28 48"><title>icon-phone</title><path d="M26 10v28H2V10h24zm0-2H2V5c0-1.656 1.344-3 3-3h18c1.656 0 3 1.344 3 3v3zm0 32v3c0 1.656-1.344 3-3 3H5c-1.656 0-3-1.344-3-3v-3h24zM0 43c0 2.76 2.24 5 5 5h18c2.76 0 5-2.24 5-5V5c0-2.76-2.24-5-5-5H5C2.24 0 0 2.24 0 5v38zM19 4H9C7.667 4 7.667 6 9 6h10c1.333 0 1.333-2 0-2zm-5 41a2 2 0 1 0-.001-4.001A2 2 0 0 0 14 45z" fill-rule="nonzero" fill="#000" stroke-linejoin="round"/></symbol><symbol id="icon-public" viewBox="0 0 48 48"><title>icon-public</title><path d="M22 8V1a1 1 0 0 1 1-1h6a1 1 0 0 1 1 1v4a1 1 0 0 1-1 1h-5v2h15a1 1 0 0 1 1 1v4a1 1 0 0 1-1 1h-3v10h10.958a1 1 0 0 1 0 2H44v8h2.958a1 1 0 0 1 0 2H44v11a1 1 0 0 1-1 1H5a1 1 0 0 1-1-1V36H1a1 1 0 0 1 0-2h3v-8H1a1 1 0 0 1 0-2h11V14H9a1 1 0 0 1-1-1V9a1 1 0 0 1 1-1h13zM12 46V36H6v10h6zM6 34h6v-8H6v8zm30 12h6V36h-6v10zm6-12v-8h-6v8h6zm-28 0h20V14H14v20zm0 12h20V36H14v10zm-4-34h28v-2H10v2zm14-8h4V2h-4v2zm-7 12h4a1 1 0 0 1 1 1v4a1 1 0 0 1-1 1h-4a1 1 0 0 1-1-1v-4a1 1 0 0 1 1-1zm10 0h4a1 1 0 0 1 1 1v4a1 1 0 0 1-1 1h-4a1 1 0 0 1-1-1v-4a1 1 0 0 1 1-1zm-10 8h4a1 1 0 0 1 1 1v4a1 1 0 0 1-1 1h-4a1 1 0 0 1-1-1v-4a1 1 0 0 1 1-1zm10 0h4a1 1 0 0 1 1 1v4a1 1 0 0 1-1 1h-4a1 1 0 0 1-1-1v-4a1 1 0 0 1 1-1zM17 38h4a1 1 0 0 1 1 1v4a1 1 0 0 1-1 1h-4a1 1 0 0 1-1-1v-4a1 1 0 0 1 1-1zm10 0h4a1 1 0 0 1 1 1v4a1 1 0 0 1-1 1h-4a1 1 0 0 1-1-1v-4a1 1 0 0 1 1-1zm1 2v2h2v-2h-2zm-10 0v2h2v-2h-2zm10-14v2h2v-2h-2zm-10 0v2h2v-2h-2zm10-6h2v-2h-2v2zm-10 0h2v-2h-2v2z" fill-rule="nonzero" fill="#000"/></symbol><symbol id="icon-tertiaire" viewBox="0 0 48 48"><title>icon-tertiaire</title><path d="M14 18.377l1.07.428.93-.234v-2.655a1 1 0 0 1 2 0v2.15l4.692-1.182a1 1 0 0 1 .488 1.94l-5.912 1.49a.993.993 0 0 1-.045.011l-1.979.499a1 1 0 0 1-.616-.042l-5.95-2.381a.993.993 0 0 1-.097-.039L6 17.329v10.628l9.323 3.414 7.352-2.525a1 1 0 0 1 1.325.946v8.157l4-1.34v-8.693a1 1 0 0 1 .569-.902l3.834-1.832a1 1 0 0 1 .79-.031L42 28.543V11.418l-9.01-4.382L30 8.038v9.878a1 1 0 0 1-2 0V8.708l-12.526 4.198a1 1 0 0 1-.693-.02L6 9.335v5.84l2 .8v-2.06a1 1 0 0 1 2 0v2.86l2 .8v-1.66a1 1 0 0 1 2 0v2.46zM4 15.875V7.854a1 1 0 0 1 1.375-.927l9.813 3.966L32.742 5.01a1 1 0 0 1 .755.049l9.94 4.834a1 1 0 0 1 .563.899v29.092a1 1 0 0 1-1.367.93l-9.6-3.782-3.66 1.226a.992.992 0 0 1-.112.038l-5.895 1.975a.992.992 0 0 1-.097.032l-7.827 2.623a1 1 0 0 1-.686-.018l-10.124-4.01a1 1 0 0 1-.632-.93v-9.289V15.875zm38 14.811l-9.124-3.514L30 28.546v7.393l2.742-.92a1 1 0 0 1 .685.019L42 38.415v-7.729zm-36-.599v7.202l9.153 3.625L22 38.619v-7.426l-6.363 2.185a1 1 0 0 1-.669-.007L6 30.087zM32.73.057a1 1 0 0 1 .742.032l13.94 6.312a1 1 0 0 1 .588.911v39.646a1 1 0 0 1-1.412.911l-13.576-6.147-17.558 6.138a1 1 0 0 1-.737-.03L.633 41.56a1 1 0 0 1-.593-.913L0 1.001A1 1 0 0 1 1.405.086L15.2 6.197 32.73.057zM46 7.956l-12.988-5.88-17.525 6.139a1 1 0 0 1-.736-.03L2 2.538l.038 37.458 13.13 5.845 17.561-6.139a1 1 0 0 1 .742.033L46 45.407V7.957z" fill-rule="nonzero" fill="#000"/></symbol></svg>