<?xml version="1.0" encoding="UTF-8"?>
<svg width="48px" height="40px" viewBox="0 0 48 40" version="1.1" xmlns="http://www.w3.org/2000/svg" xmlns:xlink="http://www.w3.org/1999/xlink">
    <!-- Generator: Sketch 42 (36781) - http://www.bohemiancoding.com/sketch -->
    <title>icon-habitat</title>
    <desc>Created with Sketch.</desc>
    <defs></defs>
    <g id="Projets" stroke="none" stroke-width="1" fill="none" fill-rule="evenodd">
        <g id="projets-list" transform="translate(-300.000000, -368.000000)" fill-rule="nonzero" fill="#000000">
            <g id="Group-2" transform="translate(0.000000, 276.000000)">
                <g id="Group-11" transform="translate(252.000000, 48.000000)">
                    <g id="Group-8" transform="translate(41.000000, 44.000000)">
                        <g id="icon-habitat" transform="translate(7.000000, 0.000000)">
                            <path d="M20,16.477033 L6,22.077033 L6,38 L8,38 L8,29 C8,28.4477153 8.44771525,28 9,28 L17,28 C17.5522847,28 18,28.4477153 18,29 L18,38 L20,38 L20,16.477033 Z M22,15.0226819 L22,38 L24,38 L24,31 C24,30.4477153 24.4477153,30 25,30 L39,30 C39.5522847,30 40,30.4477153 40,31 L40,38 L42,38 L42,17.0735206 L22,4.65972746 L22,14.9767064 C22.0003555,14.9920602 22.0003539,15.0073879 22,15.0226781 Z M20,14.322967 L20,3.41834815 L17.4726371,1.84964017 C17.0033938,1.5583857 16.8591054,0.941880445 17.1503598,0.472637138 C17.4416143,0.00339383159 18.0581196,-0.140894632 18.5273629,0.150359834 L36,10.995445 L36,5 C36,4.44771525 36.4477153,4 37,4 L41,4 C41.5522847,4 42,4.44771525 42,5 L42,14.7195829 L47.5273629,18.1503598 C47.9966062,18.4416143 48.1408946,19.0581196 47.8496402,19.5273629 C47.5583857,19.9966062 46.9418804,20.1408946 46.4726371,19.8496402 L44,18.3148999 L44,38 L47,38 C47.5522847,38 48,38.4477153 48,39 C48,39.5522847 47.5522847,40 47,40 L1,40 C0.44771525,40 0,39.5522847 0,39 C0,38.4477153 0.44771525,38 1,38 L4,38 L4,22.877033 L1.37139068,23.9284767 C0.858607159,24.1335901 0.276636716,23.8841742 0.0715233091,23.3713907 C-0.133590098,22.8586072 0.115825807,22.2766367 0.628609324,22.0715233 L20,14.322967 Z M32,32 L26,32 L26,38 L32,38 L32,32 Z M34,32 L34,38 L38,38 L38,32 L34,32 Z M38,12.2368243 L40,13.4782036 L40,6 L38,6 L38,12.2368243 Z M28,21 C25.790861,21 24,19.209139 24,17 C24,14.790861 25.790861,13 28,13 C30.209139,13 32,14.790861 32,17 C32,19.209139 30.209139,21 28,21 Z M28,19 C29.1045695,19 30,18.1045695 30,17 C30,15.8954305 29.1045695,15 28,15 C26.8954305,15 26,15.8954305 26,17 C26,18.1045695 26.8954305,19 28,19 Z M10,30 L10,38 L16,38 L16,30 L10,30 Z M9,26 C8.44771525,26 8,25.5522847 8,25 C8,24.4477153 8.44771525,24 9,24 L17,24 C17.5522847,24 18,24.4477153 18,25 C18,25.5522847 17.5522847,26 17,26 L9,26 Z" id="Combined-Shape"></path>
                        </g>
                    </g>
                </g>
            </g>
        </g>
    </g>
</svg>