<?xml version="1.0" encoding="UTF-8"?>
<svg width="48px" height="48px" viewBox="0 0 48 48" version="1.1" xmlns="http://www.w3.org/2000/svg" xmlns:xlink="http://www.w3.org/1999/xlink">
    <!-- Generator: Sketch 42 (36781) - http://www.bohemiancoding.com/sketch -->
    <title>icon-tertiaire</title>
    <desc>Created with Sketch.</desc>
    <defs></defs>
    <g id="Projets" stroke="none" stroke-width="1" fill="none" fill-rule="evenodd">
        <g id="projets-list" transform="translate(-468.000000, -360.000000)" fill-rule="nonzero" fill="#000000">
            <g id="Group-2" transform="translate(0.000000, 276.000000)">
                <g id="Group-12" transform="translate(420.000000, 48.000000)">
                    <g id="Group-7" transform="translate(36.000000, 35.000000)">
                        <g id="icon-tertiaire" transform="translate(12.000000, 0.000000)">
                            <path d="M14,19.3766927 L15.0702835,19.8050202 L16,19.5707166 L16,16.916 C16,16.3637153 16.4477153,15.916 17,15.916 C17.5522847,15.916 18,16.3637153 18,16.916 L18,19.0666844 L22.6916248,17.8843192 C23.2271647,17.7493546 23.7707161,18.0740849 23.9056808,18.6096248 C24.0406454,19.1451647 23.7159151,19.6887161 23.1803752,19.8236808 L17.2675047,21.3138195 C17.2526926,21.3179215 17.2377436,21.3216911 17.222665,21.3251198 L15.2443752,21.8236808 C15.039852,21.8752239 14.8242682,21.8607794 14.6284493,21.7824126 L8.67773571,19.4009371 C8.64451903,19.389636 8.61208778,19.3766364 8.58054548,19.3620416 L6,18.3293073 L6,28.9572414 L15.3227353,32.370997 L22.6752228,29.8462094 C23.3243747,29.6232957 24,30.1056409 24,30.792 L24,38.9491811 L28,37.60886 L28,28.916 C28,28.5307741 28.2212772,28.1798004 28.568861,28.0137145 L32.402861,26.1817145 C32.6509428,26.0631736 32.9368878,26.0520065 33.1934588,26.150839 L42,29.5431679 L42,12.4176646 L32.9902158,8.03604523 L30,9.03812828 L30,18.916 C30,19.4682847 29.5522847,19.916 29,19.916 C28.4477153,19.916 28,19.4682847 28,18.916 L28,9.70836957 L15.4737526,13.9061737 C15.2478158,13.9818897 15.0022675,13.9744382 14.7813377,13.8851614 L6,10.336657 L6,16.1750927 L8,16.9754927 L8,14.916 C8,14.3637153 8.44771525,13.916 9,13.916 C9.55228475,13.916 10,14.3637153 10,14.916 L10,17.7758927 L12,18.5762927 L12,16.916 C12,16.3637153 12.4477153,15.916 13,15.916 C13.5522847,15.916 14,16.3637153 14,16.916 L14,19.3766927 Z M4,16.8746746 C3.99964621,16.8593859 3.99964458,16.8440598 4,16.8287074 L4,8.854 C4,8.14502841 4.71733123,7.66121373 5.37466229,7.92683865 L15.188334,11.8925051 L32.7422474,6.00982633 C32.9906324,5.9265874 33.2617626,5.94413823 33.4973431,6.05870528 L43.4373431,10.8927053 C43.7815389,11.0600939 44,11.4092603 44,11.792 L44,30.9770878 C44.0003583,30.9924709 44.00036,31.0078934 44,31.0233437 L44,40.884 C44,41.5892386 43.2896103,42.0729018 42.6334558,41.8144007 L33.0323481,38.0319119 L29.3734486,39.257937 C29.3370731,39.2725899 29.2996401,39.2851655 29.2612943,39.2955177 L23.3657924,41.2709841 C23.3343532,41.2833466 23.3021365,41.2941626 23.2692357,41.3033384 L15.4417182,43.9261852 C15.2180411,44.001135 14.9750688,43.9945965 14.7557465,43.9077254 L4.63174646,39.8977254 C4.25043235,39.7466913 4,39.3781363 4,38.968 L4,29.6791445 C3.99963824,29.6636923 3.99963646,29.6481986 4,29.632675 L4,16.8746746 Z M42,31.6864209 L32.8764897,28.1719938 L30,29.5464667 L30,36.9386994 L32.7422818,36.0198148 C32.9653598,35.9450658 33.2076503,35.9513631 33.4265442,36.0375993 L42,39.4152304 L42,31.6864209 Z M6,31.0871093 L6,38.2885021 L15.1526392,41.9137573 L22,39.6193417 L22,32.1927088 L15.6367772,34.3777906 C15.4197284,34.4523234 15.1836483,34.4499348 14.9681521,34.3710254 L6,31.0871093 Z M32.7293866,1.05623372 C32.9720887,0.97121209 33.2382161,0.98295921 33.472483,1.0890347 L47.412483,7.4010347 C47.7701904,7.56300377 48,7.91933152 48,8.312 L48,47.958 C48,48.6846619 47.2494808,49.168701 46.587517,48.8689653 L33.0121476,42.7220692 L15.4539941,48.859983 C15.2135171,48.9440481 14.9500227,48.9331667 14.7172959,48.8295599 L0.633295881,42.5595599 C0.272806553,42.3990751 0.0403986306,42.0416072 0.040000509,41.6470089 L5.08968495e-07,2.00100893 C-0.000729547386,1.27741357 0.743514639,0.792603614 1.40508351,1.08572031 L15.1990727,7.19732671 L32.7293866,1.05623372 Z M46,8.95693895 L33.0124944,3.07622621 L15.4866134,9.21576628 C15.2465558,9.29986151 14.9834738,9.28931723 14.7509165,9.18627969 L2.00155175,3.53750774 L2.03934498,40.9962755 L15.1683879,46.8411419 L32.7300059,40.702017 C32.9725496,40.6172295 33.2384228,40.6290528 33.472483,40.7350347 L46,46.4074656 L46,8.95693895 Z" id="Combined-Shape"></path>
                        </g>
                    </g>
                </g>
            </g>
        </g>
    </g>
</svg>