<?xml version="1.0" encoding="UTF-8"?>
<svg width="26px" height="48px" viewBox="0 0 26 48" version="1.1" xmlns="http://www.w3.org/2000/svg" xmlns:xlink="http://www.w3.org/1999/xlink">
    <!-- Generator: Sketch 42 (36781) - http://www.bohemiancoding.com/sketch -->
    <title>icon-facebook</title>
    <desc>Created with Sketch.</desc>
    <defs></defs>
    <g id="Contacts" stroke="none" stroke-width="1" fill="none" fill-rule="evenodd">
        <g id="Contacts_B" transform="translate(-659.000000, -756.000000)" fill-rule="nonzero" fill="#000000">
            <g id="Group-4" transform="translate(240.000000, 720.000000)">
                <g id="Group-2" transform="translate(360.000000, 0.000000)">
                    <g id="logo-facebook" transform="translate(60.000000, 37.000000)">
                        <path d="M23.5716923,13 C24.1618254,13 24.6236219,13.5083688 24.567094,14.0957883 L23.7972479,22.0957883 C23.7478996,22.6086005 23.3170273,23 22.8018462,23 L16.6923077,23 L16.6923077,46 C16.6923077,46.5522847 16.2445924,47 15.6923077,47 L6.46153846,47 C5.90925371,47 5.46153846,46.5522847 5.46153846,46 L5.46153846,23 L0.923076923,23 C0.370792173,23 -0.0769230769,22.5522847 -0.0769230769,22 L-0.0769230769,14 C-0.0769230769,13.4477153 0.370792173,13 0.923076923,13 L5.46153846,13 L5.46153846,9.71 C5.46153846,3.58956589 8.37348436,-0.93 15.0881763,-0.929994708 L23.0801763,-0.903994708 C23.6311881,-0.902202127 24.0769231,-0.455014707 24.0769231,0.096 L24.0769231,7.98 C24.0769231,8.53228475 23.6292078,8.98 23.0769231,8.98 L17.5606154,8.98 C17.0036328,8.98 16.6923077,9.25594722 16.6923077,10.19 L16.6923077,13 L23.5716923,13 Z M15.6923077,15 C15.1400229,15 14.6923077,14.5522847 14.6923077,14 L14.6923077,10.19 C14.6923077,8.09405278 15.9491877,6.98 17.5606154,6.98 L22.0769231,6.98 L22.0769231,1.09275138 L15.0849231,1.07 C9.7090243,1.07 7.46153846,4.55827234 7.46153846,9.71 L7.46153846,14 C7.46153846,14.5522847 7.01382321,15 6.46153846,15 L1.92307692,15 L1.92307692,21 L6.46153846,21 C7.01382321,21 7.46153846,21.4477153 7.46153846,22 L7.46153846,45 L14.6923077,45 L14.6923077,22 C14.6923077,21.4477153 15.1400229,21 15.6923077,21 L21.8934574,21 L22.470842,15 L15.6923077,15 Z" id="icon-facebook"></path>
                    </g>
                </g>
            </g>
        </g>
    </g>
</svg>