<?xml version="1.0" encoding="UTF-8"?>
<svg width="48px" height="32px" viewBox="0 0 48 32" version="1.1" xmlns="http://www.w3.org/2000/svg" xmlns:xlink="http://www.w3.org/1999/xlink">
    <!-- Generator: Sketch 42 (36781) - http://www.bohemiancoding.com/sketch -->
    <title>icon-mail</title>
    <desc>Created with Sketch.</desc>
    <defs></defs>
    <g id="Contacts" stroke="none" stroke-width="1" fill="none" fill-rule="evenodd">
        <g id="Contacts_B" transform="translate(-468.000000, -764.000000)" fill-rule="nonzero" fill="#000000">
            <g id="Group-4" transform="translate(240.000000, 720.000000)">
                <g id="Group-12" transform="translate(176.000000, 0.000000)">
                    <g id="email-2" transform="translate(52.000000, 44.000000)">
                        <g id="Group">
                            <path d="M48,28 C48,30.2082847 46.2082847,32 44,32 L4,32 C1.79171525,32 0,30.2082847 0,28 L0,4 C0,1.79030274 1.79112739,0 4,0 L44,0 C46.2088726,0 48,1.79030274 48,4 L48,28 Z M46,28 L46,4 C46,2.89507847 45.1045092,2 44,2 L4,2 C2.89549076,2 2,2.89507847 2,4 L2,28 C2,29.1037153 2.89628475,30 4,30 L44,30 C45.1037153,30 46,29.1037153 46,28 Z M7.54325128,8.16042984 L24,18.8089143 L40.4567487,8.16042984 C40.9204305,7.86040045 41.5395408,7.99306693 41.8395702,8.45674872 C42.1395996,8.92043052 42.0069331,9.53954076 41.5432513,9.83957016 L24.5432513,20.8395702 C24.2126686,21.0534766 23.7873314,21.0534766 23.4567487,20.8395702 L6.45674872,9.83957016 C5.99306693,9.53954076 5.86040045,8.92043052 6.16042984,8.45674872 C6.46045924,7.99306693 7.07956948,7.86040045 7.54325128,8.16042984 Z M6.50386106,23.1317569 L13.5038611,19.1317569 C14.6615186,18.4702383 15.6537965,20.2067246 14.4961389,20.8682431 L7.49613894,24.8682431 C6.33848142,25.5297617 5.34620354,23.7932754 6.50386106,23.1317569 Z M40.5038611,24.8682431 L33.5038611,20.8682431 C32.3462035,20.2067246 33.3384814,18.4702383 34.4961389,19.1317569 L41.4961389,23.1317569 C42.6537965,23.7932754 41.6615186,25.5297617 40.5038611,24.8682431 Z" id="icon-mail"></path>
                        </g>
                    </g>
                </g>
            </g>
        </g>
    </g>
</svg>