<?xml version="1.0" encoding="UTF-8"?>
<svg width="28px" height="48px" viewBox="0 0 28 48" version="1.1" xmlns="http://www.w3.org/2000/svg" xmlns:xlink="http://www.w3.org/1999/xlink">
    <!-- Generator: Sketch 43.1 (39012) - http://www.bohemiancoding.com/sketch -->
    <title>icon-phone</title>
    <desc>Created with Sketch.</desc>
    <defs></defs>
    <g id="Contacts" stroke="none" stroke-width="1" fill="none" fill-rule="evenodd" stroke-linejoin="round">
        <g id="Contacts_B" transform="translate(-298.000000, -756.000000)" fill-rule="nonzero" fill="#000000">
            <g id="Group-4" transform="translate(240.000000, 720.000000)">
                <g id="Group-3">
                    <g id="mobile-phone-portrait" transform="translate(58.000000, 36.000000)">
                        <g id="Group">
                            <path d="M26,38 L26,10 L2,10 L2,38 L26,38 Z M26,40 L2,40 L2,43 C2,44.6557153 3.34428475,46 5,46 L23,46 C24.6557153,46 26,44.6557153 26,43 L26,40 Z M26,8 L26,5 C26,3.34428475 24.6557153,2 23,2 L5,2 C3.34428475,2 2,3.34428475 2,5 L2,8 L26,8 Z M0,5 C0,2.23971525 2.23971525,0 5,0 L23,0 C25.7602847,0 28,2.23971525 28,5 L28,43 C28,45.7602847 25.7602847,48 23,48 L5,48 C2.23971525,48 0,45.7602847 0,43 L0,5 Z M19,44 L9,44 C7.66666667,44 7.66666667,42 9,42 L19,42 C20.3333333,42 20.3333333,44 19,44 Z M14,3 C15.104,3 16,3.896 16,5 C16,6.104 15.108,7 14,7 C12.896,7 12,6.104 12,5 C12,3.896 12.896,3 14,3 Z" id="icon-phone" transform="translate(14.000000, 24.000000) scale(1, -1) translate(-14.000000, -24.000000) "></path>
                        </g>
                    </g>
                </g>
            </g>
        </g>
    </g>
</svg>