<?xml version="1.0" encoding="UTF-8"?>
<svg width="48px" height="48px" viewBox="0 0 48 48" version="1.1" xmlns="http://www.w3.org/2000/svg" xmlns:xlink="http://www.w3.org/1999/xlink">
    <!-- Generator: Sketch 42 (36781) - http://www.bohemiancoding.com/sketch -->
    <title>icon-public</title>
    <desc>Created with Sketch.</desc>
    <defs></defs>
    <g id="Projets" stroke="none" stroke-width="1" fill="none" fill-rule="evenodd">
        <g id="projets-list" transform="translate(-636.000000, -360.000000)" fill-rule="nonzero" fill="#000000">
            <g id="Group-2" transform="translate(0.000000, 276.000000)">
                <g id="Group-10" transform="translate(588.000000, 48.000000)">
                    <g id="Group-9" transform="translate(47.000000, 36.000000)">
                        <g id="icon-public" transform="translate(1.000000, 0.000000)">
                            <path d="M22,8 L22,5 L22,1 C22,0.44771525 22.4477153,0 23,0 L29,0 C29.5522847,0 30,0.44771525 30,1 L30,5 C30,5.55228475 29.5522847,6 29,6 L24,6 L24,8 L39,8 C39.5522847,8 40,8.44771525 40,9 L40,13 C40,13.5522847 39.5522847,14 39,14 L36,14 L36,24 L46.958,24 C47.5102847,24 47.958,24.4477153 47.958,25 C47.958,25.5522847 47.5102847,26 46.958,26 L44,26 L44,34 L46.958,34 C47.5102847,34 47.958,34.4477153 47.958,35 C47.958,35.5522847 47.5102847,36 46.958,36 L44,36 L44,47 C44,47.5522847 43.5522847,48 43,48 L35,48 L13,48 L5,48 C4.44771525,48 4,47.5522847 4,47 L4,36 L1,36 C0.44771525,36 0,35.5522847 0,35 C0,34.4477153 0.44771525,34 1,34 L4,34 L4,26 L1,26 C0.44771525,26 0,25.5522847 0,25 C0,24.4477153 0.44771525,24 1,24 L12,24 L12,14 L9,14 C8.44771525,14 8,13.5522847 8,13 L8,9 C8,8.44771525 8.44771525,8 9,8 L22,8 Z M12,46 L12,36 L6,36 L6,46 L12,46 Z M6,34 L12,34 L12,26 L6,26 L6,34 Z M36,46 L42,46 L42,36 L36,36 L36,46 Z M42,34 L42,26 L36,26 L36,34 L42,34 Z M14,34 L34,34 L34,14 L14,14 L14,34 Z M14,46 L34,46 L34,36 L14,36 L14,46 Z M10,12 L38,12 L38,10 L10,10 L10,12 Z M24,4 L28,4 L28,2 L24,2 L24,4 Z M17,16 L21,16 C21.5522847,16 22,16.4477153 22,17 L22,21 C22,21.5522847 21.5522847,22 21,22 L17,22 C16.4477153,22 16,21.5522847 16,21 L16,17 C16,16.4477153 16.4477153,16 17,16 Z M27,16 L31,16 C31.5522847,16 32,16.4477153 32,17 L32,21 C32,21.5522847 31.5522847,22 31,22 L27,22 C26.4477153,22 26,21.5522847 26,21 L26,17 C26,16.4477153 26.4477153,16 27,16 Z M17,24 L21,24 C21.5522847,24 22,24.4477153 22,25 L22,29 C22,29.5522847 21.5522847,30 21,30 L17,30 C16.4477153,30 16,29.5522847 16,29 L16,25 C16,24.4477153 16.4477153,24 17,24 Z M27,24 L31,24 C31.5522847,24 32,24.4477153 32,25 L32,29 C32,29.5522847 31.5522847,30 31,30 L27,30 C26.4477153,30 26,29.5522847 26,29 L26,25 C26,24.4477153 26.4477153,24 27,24 Z M17,38 L21,38 C21.5522847,38 22,38.4477153 22,39 L22,43 C22,43.5522847 21.5522847,44 21,44 L17,44 C16.4477153,44 16,43.5522847 16,43 L16,39 C16,38.4477153 16.4477153,38 17,38 Z M27,38 L31,38 C31.5522847,38 32,38.4477153 32,39 L32,43 C32,43.5522847 31.5522847,44 31,44 L27,44 C26.4477153,44 26,43.5522847 26,43 L26,39 C26,38.4477153 26.4477153,38 27,38 Z M28,40 L28,42 L30,42 L30,40 L28,40 Z M18,40 L18,42 L20,42 L20,40 L18,40 Z M28,26 L28,28 L30,28 L30,26 L28,26 Z M18,26 L18,28 L20,28 L20,26 L18,26 Z M28,20 L30,20 L30,18 L28,18 L28,20 Z M18,20 L20,20 L20,18 L18,18 L18,20 Z" id="Combined-Shape"></path>
                        </g>
                    </g>
                </g>
            </g>
        </g>
    </g>
</svg>